PathFileType	4	(X/Y/Z)	/home/ubuntu/injury_detection/risk_analysis_package/data/KD_injured/trc_data/trials/KD_injured.trc
DataRate	CameraRate	NumFrames	NumMarkers	Units	OrigDataRate	OrigDataStartFrame	OrigNumFrames
30	30	4	105	m	30	73	98
Frame#	Time	BLTI			BRTI			C7			CHIN			CLAV			FBBT			FLTI			FRBT			FRTI			LAKI			LANK			LBAC			LBHD			LBWT			LELB			LELS			LELSO			LFBB			LFBT			LFFB			LFFT			LFHD			LFIN			LFLB			LFLT			LFMB			LFMT			LFPI			LFRM			LFWT			LHAP			LHBA			LHEB			LHEE			LHFR			LHME			LHPI			LHTH			LHTO			LKNE			LKNI			LMT5			LSCA			LSHN			LSHO			LTIA			LTIB			LTIC			LTOE			LTOP			LTOS			LUMB			LUMC			LWRA			LWRB			NOSE			RAKI			RANK			RBAC			RBHD			RBWT			RELB			RELS			RELSO			RFBB			RFBT			RFFB			RFFT			RFHD			RFIN			RFLB			RFLT			RFMB			RFMT			RFPI			RFRM			RFWT			RHAP			RHBA			RHEB			RHEE			RHFR			RHME			RHPI			RHTH			RHTO			RIBL			RIBR			RITL			RITR			RKNE			RKNI			RMT5			RSCA			RSHN			RSHO			RTIA			RTIB			RTIC			RTOE			RTOP			RTOS			RWRA			RWRB			THD		
		X1	Y1	Z1	X2	Y2	Z2	X3	Y3	Z3	X4	Y4	Z4	X5	Y5	Z5	X6	Y6	Z6	X7	Y7	Z7	X8	Y8	Z8	X9	Y9	Z9	X10	Y10	Z10	X11	Y11	Z11	X12	Y12	Z12	X13	Y13	Z13	X14	Y14	Z14	X15	Y15	Z15	X16	Y16	Z16	X17	Y17	Z17	X18	Y18	Z18	X19	Y19	Z19	X20	Y20	Z20	X21	Y21	Z21	X22	Y22	Z22	X23	Y23	Z23	X24	Y24	Z24	X25	Y25	Z25	X26	Y26	Z26	X27	Y27	Z27	X28	Y28	Z28	X29	Y29	Z29	X30	Y30	Z30	X31	Y31	Z31	X32	Y32	Z32	X33	Y33	Z33	X34	Y34	Z34	X35	Y35	Z35	X36	Y36	Z36	X37	Y37	Z37	X38	Y38	Z38	X39	Y39	Z39	X40	Y40	Z40	X41	Y41	Z41	X42	Y42	Z42	X43	Y43	Z43	X44	Y44	Z44	X45	Y45	Z45	X46	Y46	Z46	X47	Y47	Z47	X48	Y48	Z48	X49	Y49	Z49	X50	Y50	Z50	X51	Y51	Z51	X52	Y52	Z52	X53	Y53	Z53	X54	Y54	Z54	X55	Y55	Z55	X56	Y56	Z56	X57	Y57	Z57	X58	Y58	Z58	X59	Y59	Z59	X60	Y60	Z60	X61	Y61	Z61	X62	Y62	Z62	X63	Y63	Z63	X64	Y64	Z64	X65	Y65	Z65	X66	Y66	Z66	X67	Y67	Z67	X68	Y68	Z68	X69	Y69	Z69	X70	Y70	Z70	X71	Y71	Z71	X72	Y72	Z72	X73	Y73	Z73	X74	Y74	Z74	X75	Y75	Z75	X76	Y76	Z76	X77	Y77	Z77	X78	Y78	Z78	X79	Y79	Z79	X80	Y80	Z80	X81	Y81	Z81	X82	Y82	Z82	X83	Y83	Z83	X84	Y84	Z84	X85	Y85	Z85	X86	Y86	Z86	X87	Y87	Z87	X88	Y88	Z88	X89	Y89	Z89	X90	Y90	Z90	X91	Y91	Z91	X92	Y92	Z92	X93	Y93	Z93	X94	Y94	Z94	X95	Y95	Z95	X96	Y96	Z96	X97	Y97	Z97	X98	Y98	Z98	X99	Y99	Z99	X100	Y100	Z100	X101	Y101	Z101	X102	Y102	Z102	X103	Y103	Z103	X104	Y104	Z104	X105	Y105	Z105

74	2.43333	-0.696597	-0.553224	89.6228	-0.621398	-0.444568	90.2624	-0.295544	-0.139558	90.1539	-0.225336	-0.117296	90.0245	-0.268257	-0.11249	90.0263	-0.721129	-0.611875	89.6844	-0.70872	-0.495847	89.7148	-0.613361	-0.443804	90.357	-0.573404	-0.347042	90.2831	-0.788529	-0.67407	89.6431	-0.746951	-0.701788	89.5971	-0.0784712	-0.0893591	90.1768	-0.338486	-0.212738	89.9028	-0.177749	-0.0288103	89.7682	-0.0344469	-0.0066794	90.3365	-0.0456242	0.0190403	90.2855	-0.00465338	-0.0224342	90.321	-0.502632	-0.310206	89.7527	-0.359852	-0.271298	89.7658	-0.62207	-0.26843	89.8228	-0.436023	-0.158393	89.8238	-0.216838	-0.168084	89.8761	0.178188	0.207415	90.4671	-0.555655	-0.315591	89.8324	-0.389628	-0.277419	89.8943	-0.552844	-0.236019	89.7493	-0.393331	-0.171034	89.7649	-0.627454	-0.764511	89.6976	0.0220933	0.0713494	90.4031	-0.163808	-0.168663	89.9246	-0.057211	-0.0974463	90.1499	-0.07947	-0.066702	90.2595	-0.792016	-0.770701	89.5938	-0.807593	-0.737437	89.5684	-0.010709	-0.0690069	90.2015	0.270838	0.218396	90.5051	0.139292	0.199003	90.5117	0.135701	0.24975	90.4224	-0.0450938	-0.141993	90.22	-0.592734	-0.352335	89.7797	-0.656505	-0.299988	89.7523	-0.644691	-0.747486	89.7317	-0.215634	-0.171172	90.1771	-0.600683	-0.445681	89.6975	-0.153969	-0.252593	90.1344	-0.658989	-0.392493	89.7758	-0.689823	-0.546613	89.7181	-0.745786	-0.637926	89.6731	-0.619531	-0.742984	89.7756	-0.660469	-0.757448	89.6628	-0.697567	-0.744782	89.7518	-0.0595009	0.0452507	89.8961	-0.0832331	0.0388729	89.8672	0.0841218	0.212276	90.427	0.0798026	0.177424	90.4726	-0.203779	-0.0907415	89.9259	-0.580373	-0.521176	90.3821	-0.624802	-0.57082	90.3837	-0.173181	0.0500976	90.1822	-0.377595	-0.127815	89.9113	-0.217601	0.0203729	89.7861	-0.103479	0.0949972	89.7976	-0.0965064	0.0631378	89.8506	-0.140493	0.101674	89.8074	-0.558821	-0.163486	90.0424	-0.467498	-0.112815	89.9044	-0.517157	-0.161185	90.1983	-0.383727	-0.151934	90.0215	-0.278154	-0.0491999	89.9018	-0.0818499	-0.207885	89.6018	-0.561198	-0.123018	90.1222	-0.441739	-0.019939	90.0187	-0.505424	-0.207676	90.0696	-0.407514	-0.178825	89.9408	-0.60503	-0.539357	90.5754	-0.102327	0.0165462	89.722	-0.290017	0.00438578	89.9701	-0.23194	0.042499	89.9843	-0.175154	0.108377	89.9192	-0.546565	-0.612996	90.4037	-0.567283	-0.607842	90.3647	-0.194115	0.028054	89.8884	-0.0639712	-0.280835	89.5421	-0.0728904	-0.156451	89.5718	-0.0567914	-0.189039	89.6763	-0.249124	0.0862964	89.9097	-0.0948713	-0.143577	89.9346	-0.203754	0.10733	89.9704	-0.200635	-0.169508	90.0278	-0.285574	-0.0439863	90.0222	-0.608618	-0.174545	90.1765	-0.537648	-0.222666	90.1625	-0.600514	-0.511014	90.5514	-0.308816	-0.0040163	90.1673	-0.653353	-0.345791	90.2674	-0.364691	0.0144841	90.0606	-0.575604	-0.228952	90.2339	-0.590833	-0.338228	90.2988	-0.604021	-0.476377	90.3774	-0.591785	-0.463942	90.5645	-0.613422	-0.582366	90.5427	-0.568384	-0.499304	90.5183	-0.103257	-0.13488	89.6743	-0.106574	-0.103037	89.6296	-0.303316	-0.118579	89.7889
75	2.46667	-0.683443	-0.544853	89.4726	-0.651284	-0.433735	90.1121	-0.302117	-0.142339	90.0188	-0.228976	-0.114106	89.8917	-0.272082	-0.109469	89.8931	-0.70848	-0.604315	89.5332	-0.699394	-0.488228	89.5645	-0.649983	-0.435205	90.2069	-0.601286	-0.338416	90.1384	-0.773353	-0.667805	89.4897	-0.729973	-0.694453	89.4448	-0.0853895	-0.0937523	90.0487	-0.341339	-0.201904	89.7636	-0.177312	-0.0144853	89.6423	-0.0464871	-0.0206634	90.2151	-0.0560533	0.00797611	90.1653	-0.0161652	-0.0354847	90.1997	-0.498304	-0.299212	89.6093	-0.356547	-0.258269	89.6281	-0.620193	-0.260686	89.6771	-0.435867	-0.148282	89.6869	-0.219541	-0.155551	89.7404	0.161135	0.185018	90.3657	-0.553456	-0.307372	89.6873	-0.389915	-0.268824	89.7551	-0.549491	-0.225481	89.6065	-0.391396	-0.158376	89.6291	-0.611871	-0.755244	89.5474	0.00769518	0.0529867	90.2881	-0.16597	-0.158691	89.7944	-0.0636885	-0.101003	90.0232	-0.0892155	-0.0760523	90.1336	-0.773324	-0.76419	89.4399	-0.788923	-0.731131	89.4142	-0.0186598	-0.0754363	90.0776	0.252519	0.193444	90.4073	0.120733	0.173807	90.4083	0.120188	0.229948	90.3221	-0.0537943	-0.149106	90.091	-0.588414	-0.343039	89.633	-0.652236	-0.29124	89.605	-0.629981	-0.738835	89.5814	-0.222881	-0.175018	90.0424	-0.592063	-0.435685	89.5505	-0.160401	-0.254629	89.9974	-0.653533	-0.384305	89.6273	-0.679479	-0.538614	89.568	-0.732297	-0.630956	89.5211	-0.605503	-0.734052	89.6257	-0.644279	-0.748561	89.5124	-0.683359	-0.737376	89.6006	-0.0621023	0.0558753	89.7748	-0.0854905	0.0508185	89.7452	0.0686291	0.192172	90.3226	0.0628416	0.154586	90.3658	-0.206836	-0.081459	89.7951	-0.621788	-0.514292	90.2322	-0.667743	-0.562395	90.2297	-0.180565	0.0455325	90.0586	-0.380562	-0.117728	89.7771	-0.217915	0.0338774	89.6607	-0.099091	0.109732	89.6805	-0.0941351	0.0744419	89.7316	-0.13642	0.116255	89.6894	-0.567427	-0.150195	89.9025	-0.471264	-0.0993641	89.7685	-0.531342	-0.152506	90.0602	-0.391785	-0.143523	89.8867	-0.281132	-0.0385696	89.7732	-0.0768732	-0.180833	89.4666	-0.571299	-0.111287	89.983	-0.445866	-0.0102186	89.8851	-0.516168	-0.196652	89.9306	-0.413784	-0.167936	89.8049	-0.662035	-0.533298	90.4227	-0.0962932	0.0362635	89.6	-0.294325	0.0117258	89.8425	-0.234095	0.0470473	89.8593	-0.174637	0.116149	89.8003	-0.592833	-0.607547	90.255	-0.610263	-0.601285	90.2145	-0.193275	0.0380761	89.7639	-0.0597307	-0.250886	89.4033	-0.0655186	-0.128109	89.4398	-0.0532319	-0.16709	89.5428	-0.248459	0.0952509	89.7871	-0.096438	-0.135502	89.8026	-0.208102	0.112423	89.851	-0.204545	-0.166745	89.8935	-0.289232	-0.0409241	89.8916	-0.622451	-0.162388	90.0339	-0.552444	-0.212883	90.0231	-0.654887	-0.504978	90.3993	-0.315996	-0.00796358	90.0376	-0.679852	-0.33385	90.1173	-0.369068	0.0153115	89.9301	-0.59532	-0.219165	90.0921	-0.619371	-0.329297	90.1531	-0.64338	-0.468539	90.2269	-0.646442	-0.458235	90.4134	-0.668935	-0.575872	90.389	-0.619734	-0.49412	90.369	-0.0979034	-0.111643	89.5425	-0.0990648	-0.0769238	89.5	-0.305548	-0.100741	89.656
76	2.5	-0.669971	-0.535202	88.5703	-0.659557	-0.421244	89.2065	-0.295527	-0.138119	89.1188	-0.220705	-0.110015	88.9921	-0.265391	-0.103936	88.9934	-0.695743	-0.594009	88.6309	-0.689681	-0.477432	88.661	-0.661914	-0.42252	89.3014	-0.60861	-0.326766	89.2345	-0.758022	-0.659157	88.5861	-0.713191	-0.686675	88.5429	-0.0796852	-0.0864507	89.1499	-0.333024	-0.197522	88.8635	-0.172371	-0.000261694	88.7444	-0.0375655	-0.0134504	89.314	-0.0481684	0.0162523	89.2651	-0.00695518	-0.027098	89.298	-0.492976	-0.286028	88.7071	-0.351382	-0.244411	88.7268	-0.615759	-0.247904	88.7741	-0.431343	-0.135111	88.7862	-0.211264	-0.151115	88.8406	0.166843	0.188323	89.4732	-0.548673	-0.294417	88.7847	-0.385243	-0.256061	88.8531	-0.544545	-0.212305	88.704	-0.386475	-0.14459	88.7284	-0.596759	-0.743389	88.6492	0.0156291	0.0580536	89.3895	-0.162293	-0.14598	88.8951	-0.0554125	-0.0914644	89.1219	-0.079974	-0.0682514	89.2324	-0.756053	-0.757091	88.5397	-0.771279	-0.725086	88.5126	-0.0100849	-0.0655962	89.1757	0.257599	0.195213	89.5164	0.125824	0.174973	89.5147	0.126338	0.234888	89.431	-0.0434658	-0.139895	89.1884	-0.583032	-0.329874	88.7307	-0.646979	-0.278943	88.701	-0.615166	-0.725685	88.6824	-0.214127	-0.170208	89.1428	-0.582936	-0.423385	88.6496	-0.148321	-0.247351	89.0955	-0.647318	-0.371988	88.7241	-0.668978	-0.52743	88.6659	-0.718458	-0.621181	88.618	-0.591068	-0.719086	88.7266	-0.628733	-0.738026	88.6138	-0.668928	-0.723585	88.7009	-0.0578947	0.0681522	88.8778	-0.0813538	0.0636243	88.8482	0.074639	0.19683	89.429	0.0690968	0.157416	89.4706	-0.198409	-0.0772648	88.8954	-0.636494	-0.501892	89.3278	-0.682995	-0.549216	89.3235	-0.178721	0.0513537	89.1608	-0.372306	-0.113461	88.8771	-0.213288	0.0478104	88.763	-0.100606	0.11961	88.7802	-0.0943861	0.083471	88.8306	-0.138011	0.125406	88.7894	-0.565222	-0.13759	88.9991	-0.467808	-0.0856389	88.8667	-0.531275	-0.142313	89.1572	-0.389789	-0.132677	88.985	-0.272674	-0.034172	88.8736	-0.0818656	-0.164792	88.5574	-0.569542	-0.0996297	89.08	-0.442165	0.00132047	88.9848	-0.514841	-0.185093	89.0272	-0.411234	-0.155539	88.9025	-0.679641	-0.522021	89.5175	-0.0982699	0.0483225	88.6978	-0.291354	0.0234283	88.9439	-0.232856	0.0520014	88.9592	-0.175557	0.122633	88.9005	-0.609338	-0.595603	89.3498	-0.626055	-0.588689	89.3092	-0.192537	0.0446922	88.8633	-0.067218	-0.232946	88.4913	-0.070642	-0.111374	88.5319	-0.0558885	-0.153827	88.6333	-0.249034	0.0998631	88.8874	-0.0927286	-0.123426	88.9025	-0.204364	0.123185	88.9562	-0.196962	-0.15966	88.9936	-0.284019	-0.0363642	88.9922	-0.622273	-0.150565	89.1292	-0.552639	-0.202255	89.1201	-0.672056	-0.493661	89.4943	-0.313148	-0.00504123	89.1378	-0.686211	-0.320775	89.2105	-0.366419	0.0156886	89.0305	-0.598281	-0.207772	89.1881	-0.627051	-0.317283	89.2485	-0.656855	-0.455919	89.3219	-0.663943	-0.447033	89.5088	-0.686403	-0.564249	89.4833	-0.636295	-0.482912	89.4648	-0.0999449	-0.0980545	88.6359	-0.10178	-0.0617905	88.5947	-0.296976	-0.0960004	88.7563
77	2.53333	-0.658103	-0.533032	88.5745	-0.674667	-0.404457	89.2048	-0.294698	-0.134461	89.1213	-0.219343	-0.10408	88.9951	-0.26464	-0.0984102	88.9965	-0.685024	-0.590342	88.636	-0.682198	-0.472918	88.663	-0.68144	-0.404214	89.2996	-0.623224	-0.310507	89.2336	-0.744481	-0.658101	88.5906	-0.697204	-0.68637	88.5503	-0.0795415	-0.0799702	89.1541	-0.329513	-0.192847	88.8655	-0.170947	0.0105934	88.7488	-0.0322102	-0.0037131	89.3118	-0.0456436	0.0258782	89.2637	-0.00158177	-0.0158572	89.2949	-0.490446	-0.277761	88.7082	-0.349504	-0.234289	88.7297	-0.614904	-0.239732	88.7728	-0.431031	-0.125429	88.7871	-0.20849	-0.144322	88.8435	0.168651	0.201811	89.4702	-0.547295	-0.285608	88.7852	-0.385238	-0.245619	88.8551	-0.542701	-0.204471	88.7034	-0.38528	-0.134784	88.73	-0.584242	-0.734353	88.6642	0.0201862	0.0680561	89.3874	-0.163886	-0.135151	88.8996	-0.0543331	-0.0822303	89.1214	-0.0756514	-0.0597302	89.2322	-0.738047	-0.757942	88.5491	-0.752951	-0.727713	88.5197	-0.00797722	-0.0546845	89.1731	0.260164	0.211133	89.5113	0.129112	0.186452	89.5125	0.125617	0.247664	89.4298	-0.0383466	-0.129997	89.1868	-0.580582	-0.32178	88.7317	-0.644574	-0.272441	88.6992	-0.604431	-0.715696	88.6958	-0.21151	-0.165937	89.1457	-0.576142	-0.417202	88.6536	-0.14309	-0.240725	89.096	-0.64391	-0.364994	88.7246	-0.660688	-0.522318	88.6701	-0.706764	-0.61829	88.6229	-0.5822	-0.706437	88.7407	-0.614882	-0.731469	88.6275	-0.659016	-0.714104	88.7122	-0.0580239	0.0780722	88.8834	-0.0812591	0.0739052	88.8537	0.075156	0.207957	89.4284	0.0720176	0.167681	89.4694	-0.196957	-0.0706062	88.8987	-0.658914	-0.483466	89.3284	-0.705749	-0.529964	89.3219	-0.182221	0.0565392	89.1655	-0.370199	-0.109529	88.8791	-0.211978	0.0588194	88.7668	-0.108744	0.12584	88.7794	-0.101071	0.0909118	88.8303	-0.146267	0.130804	88.7887	-0.568606	-0.124186	88.9969	-0.469021	-0.0729665	88.8661	-0.538106	-0.128775	89.1556	-0.393366	-0.120964	88.9856	-0.271849	-0.0284326	88.8768	-0.087089	-0.161685	88.5604	-0.574092	-0.0858894	89.0774	-0.444127	0.0137426	88.9845	-0.519355	-0.172151	89.026	-0.413571	-0.143593	88.9028	-0.711128	-0.504658	89.5161	-0.105378	0.0533282	88.698	-0.292937	0.0344633	88.9467	-0.236485	0.0573459	88.9621	-0.182799	0.128521	88.9008	-0.634088	-0.577526	89.3511	-0.648785	-0.570111	89.3099	-0.197219	0.0494092	88.8653	-0.0728428	-0.230806	88.4952	-0.0765267	-0.108599	88.534	-0.0603026	-0.149432	88.6359	-0.255438	0.102686	88.8891	-0.0938157	-0.113473	88.9059	-0.205232	0.132387	88.9622	-0.195453	-0.15281	88.996	-0.284228	-0.0318235	88.9955	-0.628524	-0.135823	89.1253	-0.559353	-0.188714	89.1191	-0.702187	-0.476062	89.4937	-0.315855	-0.00249243	89.1408	-0.699523	-0.303544	89.2061	-0.368363	0.0164172	89.0337	-0.608222	-0.192529	89.1858	-0.642016	-0.300474	89.2466	-0.678025	-0.437354	89.321	-0.694607	-0.429746	89.5093	-0.716703	-0.54627	89.4811	-0.664878	-0.465231	89.4662	-0.104696	-0.0939873	88.6381	-0.107266	-0.0582227	88.5966	-0.294436	-0.0901804	88.759
